<?xml version="1.0" standalone="no"?>
<!DOCTYPE svg PUBLIC "-//W3C//DTD SVG 20010904//EN"
 "http://www.w3.org/TR/2001/REC-SVG-20010904/DTD/svg10.dtd">
<svg version="1.0" xmlns="http://www.w3.org/2000/svg"
 width="101.000000pt" height="101.000000pt" viewBox="0 0 101.000000 101.000000"
 preserveAspectRatio="xMidYMid meet">
<metadata>
Created by potrace 1.14, written by Peter Selinger 2001-2017
</metadata>
<g transform="translate(0.000000,101.000000) scale(0.100000,-0.100000)"
fill="#000000" stroke="none">
<path d="M20 584 l0 -426 22 -19 c55 -48 65 -49 458 -49 391 0 391 0 443 48
l27 26 0 423 0 423 -475 0 -475 0 0 -426z m459 32 c16 -19 3 -45 -25 -52 -13
-3 -24 -12 -24 -20 0 -8 -9 -14 -20 -14 -17 0 -20 7 -20 50 l0 50 39 0 c21 0
44 -6 50 -14z m101 -33 c22 -51 19 -64 -10 -45 -24 15 -50 16 -50 2 0 -5 -9
-10 -19 -10 -19 0 -19 1 2 50 27 65 49 66 77 3z m-285 -128 c14 -13 25 -31 25
-39 0 -26 -30 -46 -70 -46 l-38 0 -4 50 c-3 51 1 56 45 59 10 0 29 -10 42 -24z
m300 16 c32 12 55 10 55 -5 0 -8 -10 -16 -22 -18 -35 -5 -37 -45 -4 -54 14 -3
26 -10 26 -15 0 -11 -40 -12 -56 -1 -17 11 -36 51 -29 62 3 6 -3 10 -14 10
-18 0 -21 -6 -21 -40 0 -29 -4 -40 -15 -40 -11 0 -15 11 -15 40 0 33 -3 40
-20 40 -11 0 -20 4 -20 9 0 11 90 19 105 10 6 -4 19 -3 30 2z m-223 -38 c2
-26 8 -38 18 -38 10 0 16 12 18 38 5 57 29 48 34 -13 l3 -50 -46 0 c-52 0 -59
8 -59 66 0 49 28 46 32 -3z m338 16 c0 -14 5 -19 18 -17 9 2 16 11 16 21 -1
10 5 17 17 17 16 0 19 -8 19 -50 0 -38 -4 -50 -15 -50 -8 0 -15 9 -15 20 0 13
-7 20 -20 20 -13 0 -20 -7 -20 -20 0 -12 -7 -20 -17 -20 -15 0 -18 9 -18 50 0
41 3 50 18 50 11 0 17 -8 17 -21z m238 -73 c5 -26 -12 -40 -42 -32 -25 6 -35
33 -19 50 14 14 58 1 61 -18z m-807 -67 c13 -6 18 -16 15 -26 -4 -9 -1 -22 5
-29 20 -24 -8 -45 -54 -42 l-40 3 1 48 c0 26 1 49 1 52 2 9 52 5 72 -6z m77
-25 c5 -50 10 -58 28 -43 9 7 14 24 12 43 -2 22 1 31 12 31 11 0 16 -14 18
-51 l3 -51 -45 -1 c-48 -1 -53 4 -56 63 -3 43 -1 47 13 43 6 -3 13 -18 15 -34z
m140 -22 c3 -46 1 -52 -16 -52 -17 0 -19 6 -16 53 2 28 3 54 4 55 0 2 6 2 13
0 7 -3 13 -26 15 -56z m70 10 c3 -34 7 -42 23 -42 10 0 19 -4 19 -10 0 -5 -18
-10 -40 -10 l-40 0 0 56 c0 47 3 55 18 52 12 -2 18 -15 20 -46z m158 27 c8 -6
14 -24 14 -40 0 -34 -23 -49 -74 -49 l-36 0 0 48 c0 27 3 52 8 56 9 10 70 0
88 -15z m111 4 c3 -7 -3 -9 -16 -6 -12 3 -21 1 -21 -5 0 -5 9 -12 20 -15 11
-3 20 -10 20 -15 0 -6 -9 -8 -20 -5 -14 4 -20 0 -20 -11 0 -9 8 -16 20 -16 11
0 20 -4 20 -10 0 -5 -18 -10 -39 -10 l-39 0 3 53 c1 28 3 53 4 55 3 9 65 -5
68 -15z m109 3 c16 -13 17 -18 6 -36 -11 -19 -11 -25 4 -41 16 -18 16 -19 0
-19 -10 0 -26 10 -37 23 l-18 22 -1 -22 c0 -13 -6 -23 -14 -23 -10 0 -15 16
-18 51 -1 28 -1 53 1 55 10 9 59 3 77 -10z m114 4 c0 -5 -9 -10 -19 -10 -33 0
-33 -17 0 -29 24 -8 30 -15 27 -33 -2 -19 -10 -24 -40 -26 -22 -2 -38 1 -38 7
0 6 11 11 25 11 29 0 33 16 6 25 -11 3 -25 13 -32 21 -11 14 -10 18 6 30 22
16 65 19 65 4z"/>
<path d="M430 595 c0 -9 6 -12 15 -9 8 4 15 10 15 15 0 5 -7 9 -15 9 -8 0 -15
-7 -15 -15z"/>
<path d="M536 591 c-4 -7 -5 -15 -2 -18 9 -9 19 4 14 18 -4 11 -6 11 -12 0z"/>
<path d="M240 419 c0 -24 4 -30 18 -27 10 2 18 14 20 31 3 22 -1 27 -17 27
-17 0 -21 -6 -21 -31z"/>
<path d="M891 374 c0 -11 3 -14 6 -6 3 7 2 16 -1 19 -3 4 -6 -2 -5 -13z"/>
<path d="M100 284 c0 -8 5 -12 10 -9 6 3 10 10 10 16 0 5 -4 9 -10 9 -5 0 -10
-7 -10 -16z"/>
<path d="M100 245 c0 -8 7 -15 15 -15 8 0 15 7 15 15 0 8 -7 15 -15 15 -8 0
-15 -7 -15 -15z"/>
<path d="M527 293 c-8 -14 -1 -57 11 -61 6 -2 15 6 21 17 8 15 7 23 -5 35 -17
18 -21 19 -27 9z"/>
<path d="M760 285 c0 -8 7 -15 15 -15 8 0 15 7 15 15 0 8 -7 15 -15 15 -8 0
-15 -7 -15 -15z"/>
</g>
</svg>
